<svg width="62" height="70" viewBox="0 0 62 70" fill="none" xmlns="http://www.w3.org/2000/svg">
<path d="M30.0677 0.4912C30.6512 0.183764 31.3488 0.183765 31.9323 0.491202L60.9322 15.7708C61.5888 16.1168 61.9999 16.7979 61.9999 17.5402L62 53.0228C62 53.7757 61.5772 54.4648 60.9059 54.8059L31.9059 69.5397C31.3366 69.829 30.6634 69.829 30.0941 69.5397L1.09409 54.8059C0.422841 54.4648 0 53.7757 0 53.0228V17.5402C0 16.798 0.411054 16.1168 1.06772 15.7708L30.0677 0.4912Z" fill="#4A4A4A"/>
<rect width="19.0553" height="3.84318" rx="1.92159" transform="matrix(0.794798 -0.606874 0.495196 0.868781 5.63635 36.5645)" fill="#56FBA0"/>
<rect width="19.0553" height="3.84318" rx="1.92159" transform="matrix(0.794798 -0.606874 0.495196 0.868781 5.63635 36.5645)" fill="#58E6B9"/>
<rect width="31.4488" height="3.53879" rx="1.76939" transform="matrix(0.287909 -0.957658 0.923479 0.383648 24.8459 49.8203)" fill="#56FBC6"/>
<rect width="18.6336" height="3.91748" rx="1.95874" transform="matrix(0.891862 0.452308 -0.35406 0.935223 7.09253 34.9531)" fill="#56FBC6"/>
<rect width="18.7575" height="3.89597" rx="1.94798" transform="matrix(-0.863809 0.503819 -0.399196 -0.916865 56.2264 37.5723)" fill="#58E5B9"/>
<rect width="18.9133" height="3.86855" rx="1.93427" transform="matrix(-0.828018 -0.560701 0.451132 -0.892457 54.6184 39.0566)" fill="#56FBC6"/>
</svg>
